<svg xmlns="http://www.w3.org/2000/svg" viewBox="0 0 730.15 417.23"><defs><style>.cls-1{fill:none;}.cls-2{fill:#6aa2cb;}.cls-3{fill:#a6d2e5;}.cls-4{fill:#bfe3ee;}.cls-5{fill:#9ac8df;}.cls-6{fill:#447db8;}</style></defs><title>УкрАвтономГаз</title><g id="bg"><rect class="cls-1" width="730.15" height="417.23"/></g><g id="logo"><g id="text"><path class="cls-2" d="M115.5,332.54h4.21l12.08,25.62h.12l11.53-25.62h3.78l-19.46,43.19h-3.84l6.1-13.48Z"/><path class="cls-2" d="M158.14,375.72h-3.6V332.54h3.6v23.73l24.16-23.73h4.64l-20.8,20.8,20.68,22.39h-4.64l-18.6-19.83-5.43,5.43Z"/><path class="cls-2" d="M194.68,375.72V332.54H211a14.54,14.54,0,0,1,7.93,2,13.31,13.31,0,0,1,4.76,5,12.72,12.72,0,0,1,1.65,6.34,13.77,13.77,0,0,1-1.65,6.65,12.83,12.83,0,0,1-4.7,5,14.54,14.54,0,0,1-7.93,2H198.28v16.17ZM211,356a11.2,11.2,0,0,0,6-1.5,9.67,9.67,0,0,0,3.57-3.69A10.11,10.11,0,0,0,221.7,346a9.7,9.7,0,0,0-1.22-4.79,10,10,0,0,0-3.6-3.66,10.45,10.45,0,0,0-5.61-1.4h-13V356Z"/><path class="cls-2" d="M268.3,375.72h-7.38l-4.21-11.22H241.22l-3.9,11.22h-7.56l15.56-43.19h7.38Zm-19.46-36.05-1.77,7-3.48,10.8h10.67l-3.54-10.92-1.65-6.83Z"/><path class="cls-2" d="M304.84,344.43a12,12,0,0,1-.92,4.48,7.8,7.8,0,0,1-3,3.69,8.73,8.73,0,0,1,4.7,4.27,10.59,10.59,0,0,1,.95,2.84,17.37,17.37,0,0,1,.27,3.14,14.28,14.28,0,0,1-1.25,6,10.82,10.82,0,0,1-3.2,4,12.8,12.8,0,0,1-4.76,2.2,24.83,24.83,0,0,1-5.92.67H274.89V332.54h16.84a17.12,17.12,0,0,1,5.06.73,12,12,0,0,1,4.18,2.23,10.58,10.58,0,0,1,2.84,3.72A12.25,12.25,0,0,1,304.84,344.43Zm-13.12,5.31a7.26,7.26,0,0,0,4.42-1.28q1.74-1.28,1.74-4.27a4.11,4.11,0,0,0-1.8-3.69,7.73,7.73,0,0,0-4.36-1.19H282v10.43Zm.55,19.21a9.36,9.36,0,0,0,5.19-1.34q2.26-1.46,2.26-5t-2.2-5.06a9.33,9.33,0,0,0-5.49-1.46H282V369h10.31Z"/><path class="cls-2" d="M331.5,339.31v36.11h-7.08V339.31H311.31v-7.08h33.31v7.08Z"/><path class="cls-2" d="M367.67,331.93a23.63,23.63,0,0,1,6.44.88,18.28,18.28,0,0,1,5.61,2.62,13.36,13.36,0,0,1,4,4.36,12.11,12.11,0,0,1,1.49,6.1V362.3a12.28,12.28,0,0,1-1.49,6.13,13.27,13.27,0,0,1-4,4.39,18.25,18.25,0,0,1-5.61,2.62,23.85,23.85,0,0,1-12.87,0,17.84,17.84,0,0,1-5.58-2.62,13.39,13.39,0,0,1-3.93-4.39,12.27,12.27,0,0,1-1.49-6.13V345.89a12.1,12.1,0,0,1,1.49-6.1,13.48,13.48,0,0,1,3.93-4.36,17.87,17.87,0,0,1,5.58-2.62A23.63,23.63,0,0,1,367.67,331.93Zm-10.43,30.32a5.37,5.37,0,0,0,.88,3.08,7.06,7.06,0,0,0,2.35,2.17,12.37,12.37,0,0,0,3.35,1.31,16.25,16.25,0,0,0,3.84.46,16.52,16.52,0,0,0,3.9-.46,12.38,12.38,0,0,0,3.35-1.31,7.06,7.06,0,0,0,2.35-2.17,5.38,5.38,0,0,0,.88-3.08V346a5.5,5.5,0,0,0-.92-3.17,7.28,7.28,0,0,0-2.38-2.2,11.21,11.21,0,0,0-3.36-1.25,18.66,18.66,0,0,0-3.84-.4,17.42,17.42,0,0,0-3.84.43,11.77,11.77,0,0,0-3.35,1.28,7.08,7.08,0,0,0-2.35,2.17,5.48,5.48,0,0,0-.88,3.14Z"/><path class="cls-2" d="M401.77,375.72h-7.08V332.54h7.08v18.12H421V332.54h7.08v43.19H421V357.67H401.77Z"/><path class="cls-2" d="M455.09,331.93a23.63,23.63,0,0,1,6.44.88,18.28,18.28,0,0,1,5.61,2.62,13.36,13.36,0,0,1,4,4.36,12.11,12.11,0,0,1,1.49,6.1V362.3a12.28,12.28,0,0,1-1.49,6.13,13.27,13.27,0,0,1-4,4.39,18.25,18.25,0,0,1-5.61,2.62,23.85,23.85,0,0,1-12.87,0,17.84,17.84,0,0,1-5.58-2.62,13.39,13.39,0,0,1-3.93-4.39,12.27,12.27,0,0,1-1.5-6.13V345.89a12.1,12.1,0,0,1,1.5-6.1,13.48,13.48,0,0,1,3.93-4.36,17.86,17.86,0,0,1,5.58-2.62A23.62,23.62,0,0,1,455.09,331.93Zm-10.43,30.32a5.37,5.37,0,0,0,.88,3.08,7.07,7.07,0,0,0,2.35,2.17,12.37,12.37,0,0,0,3.36,1.31,16.24,16.24,0,0,0,3.84.46,16.52,16.52,0,0,0,3.9-.46,12.38,12.38,0,0,0,3.35-1.31,7.07,7.07,0,0,0,2.35-2.17,5.38,5.38,0,0,0,.88-3.08V346a5.5,5.5,0,0,0-.92-3.17,7.28,7.28,0,0,0-2.38-2.2,11.21,11.21,0,0,0-3.36-1.25,18.66,18.66,0,0,0-3.84-.4,17.41,17.41,0,0,0-3.84.43,11.77,11.77,0,0,0-3.36,1.28,7.09,7.09,0,0,0-2.35,2.17,5.49,5.49,0,0,0-.88,3.14Z"/><path class="cls-2" d="M482.11,332.54H490l11.89,28.06,12-28.06h7.93v43.19h-7.08V355.9l1.34-11.71h-.61l-3.66,10.19-7.08,15.37h-5.55l-7.14-15.37L488.45,344h-.61l1.28,12v19.76h-7Z"/><path class="cls-2" d="M533.29,375.72V332.54h25.62v3.54H536.82v39.65Z"/><path class="cls-2" d="M593,375.72h-3.78L584,361.33H565.49l-5.06,14.4h-3.78l15.49-43.19h5.25Zm-26.23-18h16l-8-22.51Z"/><path class="cls-2" d="M611.85,331.93q5.67,0,8.88,3.11a11.27,11.27,0,0,1,3.2,8.48,11.06,11.06,0,0,1-1.16,5.28,10.29,10.29,0,0,1-4.15,3.87,12.57,12.57,0,0,1,3.6,2,10.16,10.16,0,0,1,2.23,2.59,9.93,9.93,0,0,1,1.16,3,16.7,16.7,0,0,1,.33,3.39,14.06,14.06,0,0,1-1.19,5.79,10.8,10.8,0,0,1-3,3.9,12.35,12.35,0,0,1-4.48,2.23,21,21,0,0,1-5.55.7,20,20,0,0,1-8.42-1.71,14,14,0,0,1-6.1-5.55l3.23-1.71a11.91,11.91,0,0,0,4.76,4.12,15.57,15.57,0,0,0,6.65,1.31,17.55,17.55,0,0,0,4.27-.49,8.85,8.85,0,0,0,3.36-1.59,7.47,7.47,0,0,0,2.2-2.84,10.18,10.18,0,0,0,.79-4.24,10.55,10.55,0,0,0-.76-4.24,7.35,7.35,0,0,0-2.14-2.84,8.92,8.92,0,0,0-3.32-1.62,17.17,17.17,0,0,0-4.39-.52h-5.61V351.2h5.61a10.21,10.21,0,0,0,6.22-1.8q2.44-1.8,2.44-5.83a8.88,8.88,0,0,0-.67-3.6,7.08,7.08,0,0,0-1.83-2.53,7.49,7.49,0,0,0-2.78-1.5,12.12,12.12,0,0,0-3.51-.49,15,15,0,0,0-5.73,1,10.31,10.31,0,0,0-4.21,3.26l-3-1.59a13.24,13.24,0,0,1,5.61-4.79A18.65,18.65,0,0,1,611.85,331.93Z"/></g><g id="_2" data-name="2"><path id="_05" data-name="05" class="cls-3" d="M563.28,271.07q-191.34,2.08-382.68,0c-47-.61-85-39.32-85-86.17q0-21.26,0-42.52c0-46.85,38.07-85.56,85-86.17q191.34-2.08,382.68,0c47,.61,85,39.32,85,86.17V184.9C648.32,231.75,610.25,270.47,563.28,271.07Z"/><path id="_04" data-name="04" class="cls-4" d="M483.91,271.76q-112,.71-223.94,0c-51.66-.41-93.54-43.21-93.54-95.24V150.77c0-52,41.88-94.83,93.54-95.24q112-.71,223.94,0c51.66.41,93.54,43.21,93.54,95.24v25.74C577.45,228.54,535.57,271.35,483.91,271.76Z"/><path id="_03" data-name="03" class="cls-2" d="M464.07,271.87q-92.13.48-184.26,0c-54.79-.37-99.21-45.8-99.21-101.07V156.48c0-55.26,44.42-100.7,99.21-101.07q92.13-.48,184.26,0c54.79.37,99.21,45.8,99.21,101.07v14.32C563.28,226.07,518.86,271.51,464.07,271.87Z"/><path id="_02" data-name="02" class="cls-5" d="M386.11,272.11H357.77c-58.71-.09-106.3-48.87-106.3-108.46h0c0-59.59,47.59-108.37,106.3-108.46h28.35c58.71.09,106.3,48.87,106.3,108.46h0C492.41,223.24,444.82,272,386.11,272.11Z"/><path id="_01" data-name="01" class="cls-6" d="M371.94,272.11h0c-58.71,0-106.3-48.82-106.3-108.47h0c0-59.65,47.59-108.43,106.3-108.47h0c58.71,0,106.3,48.82,106.3,108.47h0C478.24,223.3,430.65,272.08,371.94,272.11Z"/><path class="cls-2" d="M371.67,55.23s-13.37,29.67,22.1,72.25c31.92,38.31,38.78,96.22-21.66,140.46,0,0,13.45-46.37-26.09-95.67C314.63,133.15,328.16,73.87,371.67,55.23Z"/><path class="cls-5" d="M371.88,55a1.52,1.52,0,0,1,0,.41,3,3,0,0,1-.09.34l-.13.45c-.09.3-.18.59-.24.9-.14.61-.31,1.2-.4,1.82s-.23,1.22-.32,1.84l-.22,1.85c-.19,1.23-.17,2.48-.26,3.71s0,2.48,0,3.72.18,2.47.26,3.7c.06.61.08,1.23.18,1.84l.3,1.83.3,1.83.14.91.22.9.86,3.6a95.88,95.88,0,0,0,12.31,26.7l4.21,6.06c1.43,2,3.06,3.86,4.56,5.8l2.3,2.9,2.41,3c1.55,2,3.12,4.06,4.53,6.2a98,98,0,0,1,13.29,27.74,86.07,86.07,0,0,1,3.15,30.63,88,88,0,0,1-7.77,29.5,99.69,99.69,0,0,1-7.36,13.29c-.66,1.08-1.39,2.11-2.13,3.14s-1.45,2.07-2.22,3.07l-2.35,3c-.76,1-1.58,2-2.42,2.91l-2.48,2.85-2.62,2.73c-1.7,1.87-3.55,3.57-5.36,5.32-.89.89-1.85,1.71-2.79,2.54l-2.84,2.49c-1.93,1.61-3.92,3.15-5.87,4.74L369.54,272l1.07-4.55a60.39,60.39,0,0,0,1.16-7.2c.26-2.45.41-4.91.47-7.37a109.41,109.41,0,0,0-.7-14.75,116.85,116.85,0,0,0-7-28.54,130.51,130.51,0,0,0-6.11-13.36,141.93,141.93,0,0,0-7.64-12.53c-1.4-2-2.83-4-4.31-5.94l-2.24-2.9-2.32-3.06a78.76,78.76,0,0,1-8.07-13.33,83.21,83.21,0,0,1-5.22-14.72,74.87,74.87,0,0,1-2.29-15.45,80.43,80.43,0,0,1,4.47-30.64,74.75,74.75,0,0,1,15.86-26.17,66.13,66.13,0,0,1,11.62-9.74l1.57-1,1.63-.95c1.09-.63,2.15-1.29,3.29-1.81l1.68-.83c.56-.27,1.1-.55,1.77-.8C369.47,55.82,370.76,55.45,371.88,55Zm-.41.4-6.13,3.67c-1.07.6-2.07,1.33-3.08,2l-1.51,1-1.45,1.14a70.49,70.49,0,0,0-10.53,10.21,74.43,74.43,0,0,0-8.15,12.15A77.87,77.87,0,0,0,335,99.16a74.88,74.88,0,0,0-2.94,14.29,78.29,78.29,0,0,0-.28,14.54,76.72,76.72,0,0,0,14.92,40.12l2.2,2.91,2.33,3c.8,1,1.5,2.06,2.24,3.11s1.48,2.08,2.16,3.16a148,148,0,0,1,7.73,13.25,136.28,136.28,0,0,1,6.13,14.11,113.12,113.12,0,0,1,6.59,30,101.35,101.35,0,0,1,0,15.4c-.2,2.56-.48,5.11-.88,7.65a62.89,62.89,0,0,1-1.64,7.62l-2.4-1.74c2-1.46,4-2.88,6-4.38l2.89-2.31c1-.77,1.94-1.53,2.85-2.36,1.85-1.64,3.75-3.23,5.49-5L391,250l2.51-2.74a91.76,91.76,0,0,0,16.24-24.83l1.4-3.46c.45-1.16.8-2.35,1.21-3.53.19-.59.4-1.18.58-1.77l.48-1.8c.3-1.21.71-2.38.9-3.61a77.43,77.43,0,0,0,1.72-14.73c.1-2.47,0-4.94-.14-7.4l-.36-3.68c-.12-1.22-.35-2.44-.52-3.65a95.31,95.31,0,0,0-3.48-14.29,110.53,110.53,0,0,0-12.93-26.28c-1.32-2.06-2.8-4-4.25-6l-2.27-2.88-2.32-3-2.31-3c-.75-1-1.58-2-2.24-3.09l-4.18-6.42c-1.3-2.2-2.5-4.47-3.73-6.71-.65-1.1-1.12-2.3-1.66-3.47l-1.57-3.51a38.3,38.3,0,0,1-1.38-3.6l-1.29-3.63c-.4-1.22-.67-2.49-1-3.73L370,87.28l-.24-.93-.17-1a65.15,65.15,0,0,1-1.31-15.34c.09-1.28.13-2.57.3-3.84s.3-2.55.6-3.8l.4-1.88c.16-.62.35-1.23.52-1.85s.4-1.21.61-1.82c.1-.3.22-.6.35-.89l.19-.44c0-.1,0-.12.08-.1A.26.26,0,0,0,371.47,55.43Z"/></g><g id="_1" data-name="1"><path class="cls-2" d="M400.42,46.33q-29.76.32-59.53,0A14.41,14.41,0,0,1,326.72,32V30.32A14.41,14.41,0,0,1,340.89,16q29.76-.32,59.53,0a14.42,14.42,0,0,1,14.17,14.36V32A14.41,14.41,0,0,1,400.42,46.33Z"/></g><g id="R"><path class="cls-2" d="M646.08,41.15a21.4,21.4,0,0,1,1.77-8.67A22.69,22.69,0,0,1,659.73,20.6a22.12,22.12,0,0,1,17.34,0,22.69,22.69,0,0,1,11.88,11.88,22.11,22.11,0,0,1,0,17.34A22.69,22.69,0,0,1,677.07,61.7a22.12,22.12,0,0,1-17.34,0,22.69,22.69,0,0,1-11.88-11.88A21.4,21.4,0,0,1,646.08,41.15Zm3.42,0A18.54,18.54,0,0,0,651,48.5,18.84,18.84,0,0,0,661,58.58a18.85,18.85,0,0,0,20.7-4,19.63,19.63,0,0,0,4-6,18.76,18.76,0,0,0,0-14.7,19,19,0,0,0-10-10.05,18.76,18.76,0,0,0-14.7,0,19.62,19.62,0,0,0-6,4.05,18.71,18.71,0,0,0-5.52,13.35Zm10.8-13h9.18q4.38,0,6.6,2a7,7,0,0,1,2.22,5.49,8.92,8.92,0,0,1-.51,3.15,6.9,6.9,0,0,1-1.41,2.31,7,7,0,0,1-2.07,1.53,9.54,9.54,0,0,1-2.49.81l7.68,10.44h-3.66l-7.68-10.44h-4.68V53.93H660.3Zm7.38,12.42a19.5,19.5,0,0,0,2.64-.18,7.8,7.8,0,0,0,2.37-.69,4.34,4.34,0,0,0,1.71-1.47,4.49,4.49,0,0,0,.66-2.58,4.16,4.16,0,0,0-.51-2.13,4.27,4.27,0,0,0-1.32-1.41,6,6,0,0,0-1.86-.81,8.28,8.28,0,0,0-2.07-.27h-5.82v9.54Z"/></g></g></svg>